<svg width="958" height="277" viewBox="0 0 958 277" fill="none" xmlns="http://www.w3.org/2000/svg">
<path d="M42.5 206.75C38.8333 206.75 34.5833 206.333 29.75 205.5C25.0833 204.833 20.5 203.583 16 201.75C11.6667 199.917 8 197.333 5 194C2.16667 190.5 0.75 186.167 0.75 181C0.75 174.833 3.5 169.25 9 164.25C14.5 159.083 22.25 156.5 32.25 156.5C39.5833 156.5 46.4167 157.75 52.75 160.25C59.0833 162.583 65.25 165.5 71.25 169C77.4167 172.333 83.75 175.667 90.25 179C98.5833 171 106.167 161.083 113 149.25C120 137.417 126.917 124.75 133.75 111.25C140.75 97.5833 148.25 83.9167 156.25 70.25C164.417 56.5833 173.833 43.75 184.5 31.75L199 15.5C192.833 14.5 186.417 13.75 179.75 13.25C173.083 12.5833 166.167 12.25 159 12.25C149.167 12.25 138.417 13.0833 126.75 14.75C115.25 16.4167 103.75 19 92.25 22.5C80.9167 26 70.5 30.4167 61 35.75C51.6667 41.0833 44.1667 47.4167 38.5 54.75C32.8333 62.0833 30 70.5 30 80C30 86.5 31.4167 91.6667 34.25 95.5C37.25 99.3333 40.9167 102.167 45.25 104C49.75 105.667 54.25 106.5 58.75 106.5C66.25 106.5 72.5833 104.833 77.75 101.5C82.9167 98 86.75 94 89.25 89.5C91.9167 85 93.25 81 93.25 77.5C93.25 76.3333 94.0833 75.75 95.75 75.75C97.4167 75.75 98.25 77.0833 98.25 79.75C98.25 86.5833 96.1667 92.5 92 97.5C87.8333 102.5 82.5833 106.333 76.25 109C70.0833 111.667 63.8333 113 57.5 113C51.6667 113 45.6667 111.583 39.5 108.75C33.5 105.917 28.5 101.667 24.5 96C20.5 90.3333 18.5 83.3333 18.5 75C18.5 65 21.3333 56.1667 27 48.5C32.6667 40.6667 40.25 34 49.75 28.5C59.25 23 69.8333 18.5 81.5 15C93.1667 11.3333 104.917 8.66665 116.75 6.99999C128.75 5.33332 140 4.49999 150.5 4.49999C160.167 4.49999 169.583 4.99999 178.75 5.99999C188.083 6.83332 196.833 8.16665 205 9.99999C207.333 7.99999 209.667 6.24999 212 4.74999C214.5 3.24999 216.75 2.08332 218.75 1.24999C220.583 0.416654 222.083 -1.18017e-05 223.25 -1.18017e-05C224.583 -1.18017e-05 225.25 0.499987 225.25 1.49998C225.25 1.99999 224.333 2.91666 222.5 4.24999C220.333 5.91666 218.417 7.49999 216.75 8.99999C215.25 10.3333 214.333 11.3333 214 12C231 16.3333 244.75 22.3333 255.25 30C265.917 37.5 271.25 46.4167 271.25 56.75C271.25 65.25 268.333 72.75 262.5 79.25C256.667 85.5833 249 90.5833 239.5 94.25C230.167 97.9167 220.167 100 209.5 100.5C224.5 105.333 236.417 111.583 245.25 119.25C254.25 126.917 258.75 136.667 258.75 148.5C258.75 157.333 256.167 165.333 251 172.5C246 179.667 239.25 185.833 230.75 191C222.417 196 213.25 199.833 203.25 202.5C193.25 205.333 183.333 206.75 173.5 206.75C158 206.75 144.25 205.167 132.25 202C120.417 198.833 108.083 194.333 95.25 188.5C79.0833 200.667 61.5 206.75 42.5 206.75ZM170 199.5C180.333 199.5 189.75 197.917 198.25 194.75C206.75 191.583 214.083 187.417 220.25 182.25C226.583 177.083 231.417 171.333 234.75 165C238.25 158.667 240 152.417 240 146.25C240 140.417 238.25 134.833 234.75 129.5C231.25 124 225.75 119.417 218.25 115.75C208.583 110.917 200.083 107.583 192.75 105.75C185.417 103.75 179.583 101.917 175.25 100.25C173.583 99.4167 172.5 98.8333 172 98.5C171.5 98.1667 171.25 97.8333 171.25 97.5C171.25 95.8333 172.083 94.5 173.75 93.5C175.417 92.5 177.333 92 179.5 92C182.833 92 186.417 92.25 190.25 92.75C194.083 93.25 198.167 93.5 202.5 93.5C213.333 93.5 222.667 91.3333 230.5 87C238.333 82.6667 244.333 77.25 248.5 70.75C252.833 64.25 255 57.8333 255 51.5C255 44.3333 251.833 38.0833 245.5 32.75C239.167 27.25 227.667 22.3333 211 18C202.667 29.5 194.333 42.4167 186 56.75C177.667 70.9167 169.333 85.3333 161 100C152.667 114.5 144.25 128.25 135.75 141.25C127.25 154.25 118.75 165.417 110.25 174.75C108.25 176.917 106.667 178.583 105.5 179.75C104.333 180.75 102.75 182.167 100.75 184C110.75 188.167 121.75 191.833 133.75 195C145.75 198 157.833 199.5 170 199.5ZM37.5 199C46.8333 199.5 55.3333 198.417 63 195.75C70.8333 192.917 78.0833 189 84.75 184C80.75 182 75.6667 179.417 69.5 176.25C63.3333 173.083 57.0833 170.333 50.75 168C44.4167 165.5 38.9167 164.25 34.25 164.25C28.0833 164.25 23.4167 165.917 20.25 169.25C17.0833 172.417 15.5 176.083 15.5 180.25C15.5 184.583 17.3333 188.75 21 192.75C24.6667 196.583 30.1667 198.667 37.5 199ZM289.148 197.75C282.982 197.75 278.398 195.917 275.398 192.25C272.565 188.417 271.148 183.917 271.148 178.75C271.148 173.417 271.898 167.917 273.398 162.25C274.898 156.583 276.232 151.833 277.398 148C280.065 138.667 283.398 128.75 287.398 118.25C291.565 107.583 296.065 97.1667 300.898 87C305.898 76.6667 310.815 67.4167 315.648 59.25C319.482 52.75 323.565 47.9167 327.898 44.75C332.398 41.4167 336.315 39.75 339.648 39.75C342.315 39.75 344.398 40.75 345.898 42.75C347.565 44.5833 348.398 47.4167 348.398 51.25C348.398 53.9167 347.898 57.0833 346.898 60.75C346.065 64.4167 344.565 68.5833 342.398 73.25C336.565 86.25 329.565 99.25 321.398 112.25C313.398 125.25 303.232 137.417 290.898 148.75C288.898 153.417 287.232 158.417 285.898 163.75C284.565 169.083 283.898 173.417 283.898 176.75C283.898 187.083 287.398 192.25 294.398 192.25C299.732 192.25 305.648 188.417 312.148 180.75C318.648 172.917 324.815 162.25 330.648 148.75C331.315 148.75 331.982 148.917 332.648 149.25C333.315 149.417 333.648 150 333.648 151C331.815 155.5 329.482 160.5 326.648 166C323.982 171.333 320.815 176.417 317.148 181.25C313.648 186.083 309.565 190.083 304.898 193.25C300.232 196.25 294.982 197.75 289.148 197.75ZM292.898 140.75C298.898 134.583 304.732 127.5 310.398 119.5C316.065 111.333 321.315 102.917 326.148 94.25C331.148 85.4167 335.315 77.0833 338.648 69.25C339.815 66.75 340.732 64 341.398 61C342.232 58 342.648 55.5 342.648 53.5C342.648 51.1667 342.065 50 340.898 50C340.232 50 339.232 50.6667 337.898 52C336.565 53.1667 334.815 55.25 332.648 58.25C329.482 62.4167 325.982 68.0833 322.148 75.25C318.482 82.4167 314.732 90.0833 310.898 98.25C307.065 106.417 303.565 114.333 300.398 122C297.232 129.5 294.732 135.75 292.898 140.75ZM345.621 197C338.788 197 333.704 194.583 330.371 189.75C327.204 184.75 325.621 178.75 325.621 171.75C325.621 165.25 326.871 158.5 329.371 151.5C332.038 143.833 335.704 136.833 340.371 130.5C345.204 124.167 350.454 119.083 356.121 115.25C361.954 111.25 367.704 109.25 373.371 109.25C380.204 109.25 385.204 111.583 388.371 116.25C391.704 120.917 393.371 126.833 393.371 134C393.371 139 392.538 144.25 390.871 149.75C389.204 155.25 386.954 160.667 384.121 166C386.288 168.167 389.371 169.25 393.371 169.25C398.038 169.25 402.038 167.75 405.371 164.75C408.704 161.75 411.954 156.417 415.121 148.75C417.121 148.75 418.121 149.5 418.121 151C414.954 158.667 411.288 164.333 407.121 168C403.121 171.5 397.954 173.167 391.621 173C387.788 173 384.621 171.917 382.121 169.75C377.454 177.417 371.871 183.917 365.371 189.25C359.038 194.417 352.454 197 345.621 197ZM349.121 191.5C352.954 191.5 356.788 189.917 360.621 186.75C364.454 183.417 367.954 179.667 371.121 175.5C374.288 171.333 376.538 167.75 377.871 164.75C375.204 159.917 373.621 156.333 373.121 154C372.788 151.5 372.621 149.667 372.621 148.5C372.621 145.333 373.454 142.917 375.121 141.25C376.788 139.583 378.454 138.75 380.121 138.75C382.454 138.75 384.454 139.75 386.121 141.75C386.454 139.917 386.704 138.25 386.871 136.75C387.038 135.083 387.121 133.5 387.121 132C387.121 127.667 386.288 124.167 384.621 121.5C383.121 118.667 380.704 117.25 377.371 117.25C373.871 117.25 370.204 118.75 366.371 121.75C362.538 124.75 358.871 128.75 355.371 133.75C352.038 138.75 349.121 144.333 346.621 150.5C344.454 155.667 342.788 160.583 341.621 165.25C340.454 169.75 339.871 173.917 339.871 177.75C339.871 181.917 340.621 185.25 342.121 187.75C343.621 190.25 345.954 191.5 349.121 191.5ZM397.844 276.75C382.01 276.75 374.094 270.25 374.094 257.25C374.094 251.083 376.26 245.583 380.594 240.75C384.927 235.917 390.094 231.75 396.094 228.25C404.427 223.25 412.594 219.25 420.594 216.25C428.594 213.25 436.26 210.583 443.594 208.25C450.927 206.083 457.76 203.667 464.094 201C465.594 196.667 466.844 191.917 467.844 186.75C468.844 181.417 469.594 176.25 470.094 171.25C470.594 166.25 470.844 161.917 470.844 158.25C470.844 154.417 470.594 151.917 470.094 150.75C468.26 154.25 465.76 158.583 462.594 163.75C459.594 168.917 456.01 174.083 451.844 179.25C447.844 184.25 443.594 188.417 439.094 191.75C434.594 195.083 430.01 196.75 425.344 196.75C423.677 196.75 422.094 196.5 420.594 196C415.927 194 412.51 191.167 410.344 187.5C408.344 183.833 407.344 179.667 407.344 175C407.344 167.5 409.51 159.417 413.844 150.75C418.177 142.083 423.344 134.167 429.344 127C434.177 121.167 439.844 116.5 446.344 113C452.844 109.5 459.427 107.75 466.094 107.75C473.76 107.75 480.927 110.333 487.594 115.5C490.094 117.5 491.344 119.667 491.344 122C491.344 124.5 490.344 125.75 488.344 125.75C486.677 125.75 485.51 124.667 484.844 122.5C482.51 116.333 478.76 113.25 473.594 113.25C469.427 113.25 464.677 115.083 459.344 118.75C454.01 122.25 449.01 126.667 444.344 132C440.344 136.5 436.427 141.667 432.594 147.5C428.927 153.333 425.844 159.083 423.344 164.75C421.01 170.417 419.844 175.333 419.844 179.5C419.844 182.333 420.51 184.75 421.844 186.75C423.177 188.75 425.26 189.75 428.094 189.75C431.927 189.75 435.927 187.917 440.094 184.25C444.427 180.583 448.51 176.083 452.344 170.75C456.344 165.417 459.76 160 462.594 154.5C465.594 149 467.677 144.417 468.844 140.75C470.01 136.917 471.594 134.583 473.594 133.75C475.594 132.75 477.594 132.25 479.594 132.25C481.594 132.25 483.26 131.75 484.594 130.75C485.26 134.417 485.677 138.167 485.844 142C486.177 145.667 486.344 149.417 486.344 153.25C486.344 160.917 485.844 167.917 484.844 174.25C484.01 180.583 482.51 187.333 480.344 194.5C486.344 190.833 491.51 186.25 495.844 180.75C500.344 175.083 504.01 169.417 506.844 163.75C509.844 157.917 512.26 152.917 514.094 148.75C516.094 148.75 517.094 149.5 517.094 151C514.927 155.5 512.177 161 508.844 167.5C505.677 174 501.594 180.333 496.594 186.5C491.76 192.5 485.677 197.167 478.344 200.5C475.51 208.5 471.427 216.917 466.094 225.75C460.927 234.583 454.76 242.833 447.594 250.5C440.427 258.333 432.594 264.667 424.094 269.5C415.594 274.333 406.844 276.75 397.844 276.75ZM391.844 271.75C395.51 271.75 399.344 270.917 403.344 269.25C407.51 267.75 411.427 265.917 415.094 263.75C418.76 261.583 421.594 259.75 423.594 258.25C427.427 255.25 431.344 251.5 435.344 247C439.344 242.5 442.844 238.167 445.844 234C448.677 230 451.594 225.75 454.594 221.25C457.594 216.917 460.01 212.583 461.844 208.25L451.594 211.5C446.094 213.167 440.01 215.167 433.344 217.5C426.844 220 420.344 222.75 413.844 225.75C407.344 228.75 401.427 232 396.094 235.5C391.427 238.667 387.594 242.833 384.594 248C381.427 253.167 379.844 257.667 379.844 261.5C379.844 264.333 380.844 266.75 382.844 268.75C384.677 270.75 387.677 271.75 391.844 271.75Z" fill="#0056C8"/>
<path d="M518.32 197V17.6H603.08C632.2 17.6 646.76 32.16 646.76 61.28V76.88C646.76 82.7733 645.027 87.8 641.56 91.96L632.46 102.88L643.38 111.98C649.1 116.66 651.96 123.593 651.96 132.78V153.32C651.96 182.44 637.4 197 608.28 197H518.32ZM555.76 163.2H606.72C611.92 163.2 614.52 160.6 614.52 155.4V129.4C614.52 124.2 611.92 121.6 606.72 121.6H555.76V163.2ZM555.76 87.8H601.52C606.72 87.8 609.32 85.2 609.32 80V59.2C609.32 54 606.72 51.4 601.52 51.4H555.76V87.8ZM682.999 154.88V101.84C682.999 73.76 697.039 59.72 725.119 59.72H761.519C789.599 59.72 803.639 73.76 803.639 101.84V154.88C803.639 182.96 789.599 197 761.519 197H725.119C697.039 197 682.999 182.96 682.999 154.88ZM718.879 157.48C718.879 163.027 721.653 165.8 727.199 165.8H759.439C764.986 165.8 767.759 163.027 767.759 157.48V99.24C767.759 93.6933 764.986 90.92 759.439 90.92H727.199C721.653 90.92 718.879 93.6933 718.879 99.24V157.48ZM827.257 191.02L872.237 127.58L828.557 65.7L831.417 59.72H864.437L892.257 100.8L920.077 59.72H953.097L955.957 65.7L912.537 127.58L957.257 191.02L954.397 197H921.377L892.257 154.62L863.137 197H830.117L827.257 191.02Z" fill="#DCDCDC"/>
</svg>
